<?xml version="1.0" encoding="UTF-8"?>
<svg width="6" height="10" viewBox="0 0 20 34.9" xmlns="http://www.w3.org/2000/svg">
  <g transform="translate(-814.6 -274.39)matrix(1.1856 0 0 1.1856 -151.18 -57.398)">
    <path d="m817.1 283c-1.3 1.3-2 3.3-2 5.1 0.1 3.8 1.8 5.3 4.6 10.6 1 2.3 2 4.8 3 8.9 0.1 0.6 0.3 1.2 0.3 1.2 0.1 0 0.2-0.5 0.3-1.1 1-4.1 2-6.5 3-8.9 2.8-5.3 4.5-6.7 4.6-10.6 0-1.8-0.8-3.8-2-5.1-1.4-1.5-3.6-2.7-5.9-2.7-2.3 0-4.5 1.1-5.9 2.6z" style="fill:#ff0606;stroke:#353534" />
    <circle cx="823" cy="288.3" r="3" fill="#00f" />
  </g>
</svg>